<svg xmlns="http://www.w3.org/2000/svg" width="668.3902587890625" height="664.8988037109375" viewBox="-134.89926147460938 -518.09814453125 668.3902587890625 664.8988037109375"><title>Neo4j Graph Visualization</title><desc>Created using Neo4j (http://www.neo4j.com/)</desc><g class="layer relationships"><g class="relationship" transform="translate(96.83025258416922 -127.73289280279775) rotate(285.8363821624652)"><path class="outline" fill="#A5ABB6" stroke="none" d="M 25 0.5 L 76.92339449185307 0.5 L 76.92339449185307 -0.5 L 25 -0.5 Z M 111.36870699185307 0.5 L 163.29210148370615 0.5 L 163.29210148370615 3.5 L 170.29210148370615 0 L 163.29210148370615 -3.5 L 163.29210148370615 -0.5 L 111.36870699185307 -0.5 Z"/><text text-anchor="middle" pointer-events="none" font-size="8px" fill="#000000" x="94.14605074185307" y="3" font-family="sans-serif">ORIGIN</text></g><g class="relationship" transform="translate(96.83025258416922 -127.73289280279775) rotate(256.4306865418953)"><path class="outline" fill="#A5ABB6" stroke="none" d="M 25 0.5 L 54.638809488618676 0.5 L 54.638809488618676 -0.5 L 25 -0.5 Z M 113.83021573861868 0.5 L 143.46902522723735 0.5 L 143.46902522723735 3.5 L 150.46902522723735 0 L 143.46902522723735 -3.5 L 143.46902522723735 -0.5 L 113.83021573861868 -0.5 Z"/><text text-anchor="middle" pointer-events="none" font-size="8px" fill="#000000" x="84.23451261361868" y="3" transform="rotate(180 84.23451261361868 0)" font-family="sans-serif">DESTINATION</text></g><g class="relationship" transform="translate(194.13991762306273 -138.27433030894505) rotate(256.06062087505654)"><path class="outline" fill="#A5ABB6" stroke="none" d="M 25 0.5 L 70.63694629531396 0.5 L 70.63694629531396 -0.5 L 25 -0.5 Z M 105.08225879531396 0.5 L 150.71920509062792 0.5 L 150.71920509062792 3.5 L 157.71920509062792 0 L 150.71920509062792 -3.5 L 150.71920509062792 -0.5 L 105.08225879531396 -0.5 Z"/><text text-anchor="middle" pointer-events="none" font-size="8px" fill="#000000" x="87.85960254531396" y="3" transform="rotate(180 87.85960254531396 0)" font-family="sans-serif">ORIGIN</text></g><g class="relationship" transform="translate(194.13991762306273 -138.27433030894505) rotate(444.5116992760017)"><path class="outline" fill="#A5ABB6" stroke="none" d="M 25 0.5 L 68.16621986990874 0.5 L 68.16621986990874 -0.5 L 25 -0.5 Z M 127.35762611990874 0.5 L 170.5238459898175 0.5 L 170.5238459898175 3.5 L 177.5238459898175 0 L 170.5238459898175 -3.5 L 170.5238459898175 -0.5 L 127.35762611990874 -0.5 Z"/><text text-anchor="middle" pointer-events="none" font-size="8px" fill="#000000" x="97.76192299490874" y="3" font-family="sans-serif">DESTINATION</text></g><g class="relationship" transform="translate(399.8685232962633 -274.99672225024) rotate(189.23713144523276)"><path class="outline" fill="#A5ABB6" stroke="none" d="M 25 0.5 L 105.79029593330718 0.5 L 105.79029593330718 -0.5 L 25 -0.5 Z M 140.23560843330716 0.5 L 221.02590436661436 0.5 L 221.02590436661436 3.5 L 228.02590436661436 0 L 221.02590436661436 -3.5 L 221.02590436661436 -0.5 L 140.23560843330716 -0.5 Z"/><text text-anchor="middle" pointer-events="none" font-size="8px" fill="#000000" x="123.01295218330718" y="3" transform="rotate(180 123.01295218330718 0)" font-family="sans-serif">ORIGIN</text></g><g class="relationship" transform="translate(399.8685232962633 -274.99672225024) rotate(407.98806321055247)"><path class="outline" fill="#A5ABB6" stroke="none" d="M 25 0.5 L 45.06413285652867 0.5 L 45.06413285652867 -0.5 L 25 -0.5 Z M 104.25553910652867 0.5 L 124.31967196305735 0.5 L 124.31967196305735 3.5 L 131.31967196305735 0 L 124.31967196305735 -3.5 L 124.31967196305735 -0.5 L 104.25553910652867 -0.5 Z"/><text text-anchor="middle" pointer-events="none" font-size="8px" fill="#000000" x="74.65983598152867" y="3" font-family="sans-serif">DESTINATION</text></g><g class="relationship" transform="translate(247.1995271154001 -326.0693791490622) rotate(533.8519738638765)"><path class="outline" fill="#A5ABB6" stroke="none" d="M 25 0.5 L 28.096013547055257 0.5 L 28.096013547055257 -0.5 L 25 -0.5 Z M 62.54132604705526 0.5 L 65.63733959411051 0.5 L 65.63733959411051 3.5 L 72.63733959411051 0 L 65.63733959411051 -3.5 L 65.63733959411051 -0.5 L 62.54132604705526 -0.5 Z"/><text text-anchor="middle" pointer-events="none" font-size="8px" fill="#000000" x="45.31866979705526" y="3" transform="rotate(180 45.31866979705526 0)" font-family="sans-serif">ORIGIN</text></g><g class="relationship" transform="translate(247.1995271154001 -326.0693791490622) rotate(531.7518566062269)"><path class="outline" fill="#A5ABB6" stroke="none" d="M 25 0.5 L 63.6743241165553 0.5 L 63.6743241165553 -0.5 L 25 -0.5 Z M 122.8657303665553 0.5 L 161.5400544831106 0.5 L 161.5400544831106 3.5 L 168.5400544831106 0 L 161.5400544831106 -3.5 L 161.5400544831106 -0.5 L 122.8657303665553 -0.5 Z"/><text text-anchor="middle" pointer-events="none" font-size="8px" fill="#000000" x="93.2700272415553" y="3" transform="rotate(180 93.2700272415553 0)" font-family="sans-serif">DESTINATION</text></g><g class="relationship" transform="translate(305.2865524786375 -246.29797582103683) rotate(204.071381415188)"><path class="outline" fill="#A5ABB6" stroke="none" d="M 25 0.5 L 64.24795979700471 0.5 L 64.24795979700471 -0.5 L 25 -0.5 Z M 98.69327229700471 0.5 L 137.94123209400942 0.5 L 137.94123209400942 3.5 L 144.94123209400942 0 L 137.94123209400942 -3.5 L 137.94123209400942 -0.5 L 98.69327229700471 -0.5 Z"/><text text-anchor="middle" pointer-events="none" font-size="8px" fill="#000000" x="81.47061604700471" y="3" transform="rotate(180 81.47061604700471 0)" font-family="sans-serif">ORIGIN</text></g><g class="relationship" transform="translate(305.2865524786375 -246.29797582103683) rotate(533.4427629755753)"><path class="outline" fill="#A5ABB6" stroke="none" d="M 25 0.5 L 62.69316838458333 0.5 L 62.69316838458333 -0.5 L 25 -0.5 Z M 121.88457463458333 0.5 L 159.57774301916666 0.5 L 159.57774301916666 3.5 L 166.57774301916666 0 L 159.57774301916666 -3.5 L 159.57774301916666 -0.5 L 121.88457463458333 -0.5 Z"/><text text-anchor="middle" pointer-events="none" font-size="8px" fill="#000000" x="92.28887150958333" y="3" transform="rotate(180 92.28887150958333 0)" font-family="sans-serif">DESTINATION</text></g><g class="relationship" transform="translate(341.5920055493899 -354.4146502425721) rotate(528.5438769313622)"><path class="outline" fill="#A5ABB6" stroke="none" d="M 25 0.5 L 76.95754693767269 0.5 L 76.95754693767269 -0.5 L 25 -0.5 Z M 111.40285943767269 0.5 L 163.36040637534538 0.5 L 163.36040637534538 3.5 L 170.36040637534538 0 L 163.36040637534538 -3.5 L 163.36040637534538 -0.5 L 111.40285943767269 -0.5 Z"/><text text-anchor="middle" pointer-events="none" font-size="8px" fill="#000000" x="94.18020318767269" y="3" transform="rotate(180 94.18020318767269 0)" font-family="sans-serif">ORIGIN</text></g><g class="relationship" transform="translate(341.5920055493899 -354.4146502425721) rotate(498.741585450412)"><path class="outline" fill="#A5ABB6" stroke="none" d="M 25 0.5 L 57.01915141218885 0.5 L 57.01915141218885 -0.5 L 25 -0.5 Z M 116.21055766218885 0.5 L 148.2297090743777 0.5 L 148.2297090743777 3.5 L 155.2297090743777 0 L 148.2297090743777 -3.5 L 148.2297090743777 -0.5 L 116.21055766218885 -0.5 Z"/><text text-anchor="middle" pointer-events="none" font-size="8px" fill="#000000" x="86.61485453718885" y="3" transform="rotate(180 86.61485453718885 0)" font-family="sans-serif">DESTINATION</text></g><g class="relationship" transform="translate(292.561302062941 -148.3529754242058) rotate(229.58244227094167)"><path class="outline" fill="#A5ABB6" stroke="none" d="M 25 0.5 L 89.12298619751041 0.5 L 89.12298619751041 -0.5 L 25 -0.5 Z M 123.56829869751041 0.5 L 187.69128489502083 0.5 L 187.69128489502083 3.5 L 194.69128489502083 0 L 187.69128489502083 -3.5 L 187.69128489502083 -0.5 L 123.56829869751041 -0.5 Z"/><text text-anchor="middle" pointer-events="none" font-size="8px" fill="#000000" x="106.34564244751041" y="3" transform="rotate(180 106.34564244751041 0)" font-family="sans-serif">ORIGIN</text></g><g class="relationship" transform="translate(292.561302062941 -148.3529754242058) rotate(470.47857744270635)"><path class="outline" fill="#A5ABB6" stroke="none" d="M 25 0.5 L 79.88112141959077 0.5 L 79.88112141959077 -0.5 L 25 -0.5 Z M 139.07252766959078 0.5 L 193.95364908918154 0.5 L 193.95364908918154 3.5 L 200.95364908918154 0 L 193.95364908918154 -3.5 L 193.95364908918154 -0.5 L 139.07252766959078 -0.5 Z"/><text text-anchor="middle" pointer-events="none" font-size="8px" fill="#000000" x="109.47682454459077" y="3" transform="rotate(180 109.47682454459077 0)" font-family="sans-serif">DESTINATION</text></g><g class="relationship" transform="translate(254.21432334599024 -59.720259166566635) rotate(247.8647480355761)"><path class="outline" fill="#A5ABB6" stroke="none" d="M 25 0.5 L 117.40388992416979 0.5 L 117.40388992416979 -0.5 L 25 -0.5 Z M 151.8492024241698 0.5 L 244.25309234833958 0.5 L 244.25309234833958 3.5 L 251.25309234833958 0 L 244.25309234833958 -3.5 L 244.25309234833958 -0.5 L 151.8492024241698 -0.5 Z"/><text text-anchor="middle" pointer-events="none" font-size="8px" fill="#000000" x="134.6265461741698" y="3" transform="rotate(180 134.6265461741698 0)" font-family="sans-serif">ORIGIN</text></g><g class="relationship" transform="translate(254.21432334599024 -59.720259166566635) rotate(468.30523892891256)"><path class="outline" fill="#A5ABB6" stroke="none" d="M 25 0.5 L 31.704051492898486 0.5 L 31.704051492898486 -0.5 L 25 -0.5 Z M 90.89545774289849 0.5 L 97.59950923579697 0.5 L 97.59950923579697 3.5 L 104.59950923579697 0 L 97.59950923579697 -3.5 L 97.59950923579697 -0.5 L 90.89545774289849 -0.5 Z"/><text text-anchor="middle" pointer-events="none" font-size="8px" fill="#000000" x="61.299754617898486" y="3" transform="rotate(180 61.299754617898486 0)" font-family="sans-serif">DESTINATION</text></g><g class="relationship" transform="translate(89.53985424228627 -489.0981308520784) rotate(430.74998380813634)"><path class="outline" fill="#A5ABB6" stroke="none" d="M 25 0.5 L 71.15717725003068 0.5 L 71.15717725003068 -0.5 L 25 -0.5 Z M 105.60248975003068 0.5 L 151.75966700006137 0.5 L 151.75966700006137 3.5 L 158.75966700006137 0 L 151.75966700006137 -3.5 L 151.75966700006137 -0.5 L 105.60248975003068 -0.5 Z"/><text text-anchor="middle" pointer-events="none" font-size="8px" fill="#000000" x="88.37983350003068" y="3" font-family="sans-serif">ORIGIN</text></g><g class="relationship" transform="translate(89.53985424228627 -489.0981308520784) rotate(460.0687952804994)"><path class="outline" fill="#A5ABB6" stroke="none" d="M 25 0.5 L 63.793590667556074 0.5 L 63.793590667556074 -0.5 L 25 -0.5 Z M 122.98499691755607 0.5 L 161.77858758511215 0.5 L 161.77858758511215 3.5 L 168.77858758511215 0 L 161.77858758511215 -3.5 L 161.77858758511215 -0.5 L 122.98499691755607 -0.5 Z"/><text text-anchor="middle" pointer-events="none" font-size="8px" fill="#000000" x="93.38929379255607" y="3" transform="rotate(180 93.38929379255607 0)" font-family="sans-serif">DESTINATION</text></g><g class="relationship" transform="translate(172.6514689632779 -436.0705194994837) rotate(460.59294456091044)"><path class="outline" fill="#A5ABB6" stroke="none" d="M 25 0.5 L 40.55048884791233 0.5 L 40.55048884791233 -0.5 L 25 -0.5 Z M 74.99580134791233 0.5 L 90.54629019582465 0.5 L 90.54629019582465 3.5 L 97.54629019582465 0 L 90.54629019582465 -3.5 L 90.54629019582465 -0.5 L 74.99580134791233 -0.5 Z"/><text text-anchor="middle" pointer-events="none" font-size="8px" fill="#000000" x="57.77314509791233" y="3" transform="rotate(180 57.77314509791233 0)" font-family="sans-serif">ORIGIN</text></g><g class="relationship" transform="translate(172.6514689632779 -436.0705194994837) rotate(440.52770384741984)"><path class="outline" fill="#A5ABB6" stroke="none" d="M 25 0.5 L 68.5448729542569 0.5 L 68.5448729542569 -0.5 L 25 -0.5 Z M 127.7362792042569 0.5 L 171.2811521585138 0.5 L 171.2811521585138 3.5 L 178.2811521585138 0 L 171.2811521585138 -3.5 L 171.2811521585138 -0.5 L 127.7362792042569 -0.5 Z"/><text text-anchor="middle" pointer-events="none" font-size="8px" fill="#000000" x="98.1405760792569" y="3" font-family="sans-serif">DESTINATION</text></g><g class="relationship" transform="translate(-6.351956047987687 -468.1196560638494) rotate(404.26410813051285)"><path class="outline" fill="#A5ABB6" stroke="none" d="M 25 0.5 L 88.5282340352107 0.5 L 88.5282340352107 -0.5 L 25 -0.5 Z M 122.9735465352107 0.5 L 186.5017805704214 0.5 L 186.5017805704214 3.5 L 193.5017805704214 0 L 186.5017805704214 -3.5 L 186.5017805704214 -0.5 L 122.9735465352107 -0.5 Z"/><text text-anchor="middle" pointer-events="none" font-size="8px" fill="#000000" x="105.7508902852107" y="3" font-family="sans-serif">ORIGIN</text></g><g class="relationship" transform="translate(-6.351956047987687 -468.1196560638494) rotate(429.9387805199625)"><path class="outline" fill="#A5ABB6" stroke="none" d="M 25 0.5 L 57.29651646512403 0.5 L 57.29651646512403 -0.5 L 25 -0.5 Z M 116.48792271512403 0.5 L 148.78443918024806 0.5 L 148.78443918024806 3.5 L 155.78443918024806 0 L 148.78443918024806 -3.5 L 148.78443918024806 -0.5 L 116.48792271512403 -0.5 Z"/><text text-anchor="middle" pointer-events="none" font-size="8px" fill="#000000" x="86.89221959012403" y="3" font-family="sans-serif">DESTINATION</text></g><g class="relationship" transform="translate(-8.733673037811887 -369.86792943950655) rotate(378.856798568642)"><path class="outline" fill="#A5ABB6" stroke="none" d="M 25 0.5 L 63.21081972904132 0.5 L 63.21081972904132 -0.5 L 25 -0.5 Z M 97.65613222904132 0.5 L 135.86695195808264 0.5 L 135.86695195808264 3.5 L 142.86695195808264 0 L 135.86695195808264 -3.5 L 135.86695195808264 -0.5 L 97.65613222904132 -0.5 Z"/><text text-anchor="middle" pointer-events="none" font-size="8px" fill="#000000" x="80.43347597904132" y="3" font-family="sans-serif">ORIGIN</text></g><g class="relationship" transform="translate(-8.733673037811887 -369.86792943950655) rotate(392.0115855960319)"><path class="outline" fill="#A5ABB6" stroke="none" d="M 25 0.5 L 93.58721540839271 0.5 L 93.58721540839271 -0.5 L 25 -0.5 Z M 152.7786216583927 0.5 L 221.36583706678542 0.5 L 221.36583706678542 3.5 L 228.36583706678542 0 L 221.36583706678542 -3.5 L 221.36583706678542 -0.5 L 152.7786216583927 -0.5 Z"/><text text-anchor="middle" pointer-events="none" font-size="8px" fill="#000000" x="123.18291853339271" y="3" font-family="sans-serif">DESTINATION</text></g><g class="relationship" transform="translate(-105.89926252203168 -346.327768212922) rotate(366.84108419720593)"><path class="outline" fill="#A5ABB6" stroke="none" d="M 25 0.5 L 108.20678060888804 0.5 L 108.20678060888804 -0.5 L 25 -0.5 Z M 142.65209310888804 0.5 L 225.85887371777608 0.5 L 225.85887371777608 3.5 L 232.85887371777608 0 L 225.85887371777608 -3.5 L 225.85887371777608 -0.5 L 142.65209310888804 -0.5 Z"/><text text-anchor="middle" pointer-events="none" font-size="8px" fill="#000000" x="125.42943685888804" y="3" font-family="sans-serif">ORIGIN</text></g><g class="relationship" transform="translate(-105.89926252203168 -346.327768212922) rotate(388.89704713766395)"><path class="outline" fill="#A5ABB6" stroke="none" d="M 25 0.5 L 93.0402118433947 0.5 L 93.0402118433947 -0.5 L 25 -0.5 Z M 152.2316180933947 0.5 L 220.2718299367894 0.5 L 220.2718299367894 3.5 L 227.2718299367894 0 L 220.2718299367894 -3.5 L 220.2718299367894 -0.5 L 152.2316180933947 -0.5 Z"/><text text-anchor="middle" pointer-events="none" font-size="8px" fill="#000000" x="122.6359149683947" y="3" font-family="sans-serif">DESTINATION</text></g><g class="relationship" transform="translate(270.81379768853975 -422.57688342610106) rotate(498.4503256237296)"><path class="outline" fill="#A5ABB6" stroke="none" d="M 25 0.5 L 59.911444338584616 0.5 L 59.911444338584616 -0.5 L 25 -0.5 Z M 94.35675683858462 0.5 L 129.26820117716923 0.5 L 129.26820117716923 3.5 L 136.26820117716923 0 L 129.26820117716923 -3.5 L 129.26820117716923 -0.5 L 94.35675683858462 -0.5 Z"/><text text-anchor="middle" pointer-events="none" font-size="8px" fill="#000000" x="77.13410058858462" y="3" transform="rotate(180 77.13410058858462 0)" font-family="sans-serif">ORIGIN</text></g><g class="relationship" transform="translate(270.81379768853975 -422.57688342610106) rotate(469.08581950479464)"><path class="outline" fill="#A5ABB6" stroke="none" d="M 25 0.5 L 65.85134759576691 0.5 L 65.85134759576691 -0.5 L 25 -0.5 Z M 125.04275384576691 0.5 L 165.89410144153382 0.5 L 165.89410144153382 3.5 L 172.89410144153382 0 L 165.89410144153382 -3.5 L 165.89410144153382 -0.5 L 125.04275384576691 -0.5 Z"/><text text-anchor="middle" pointer-events="none" font-size="8px" fill="#000000" x="95.44705072076691" y="3" transform="rotate(180 95.44705072076691 0)" font-family="sans-serif">DESTINATION</text></g><g class="relationship" transform="translate(-39.16124766826341 -277.3174124570953) rotate(348.5625694446795)"><path class="outline" fill="#A5ABB6" stroke="none" d="M 25 0.5 L 75.83734490067293 0.5 L 75.83734490067293 -0.5 L 25 -0.5 Z M 110.28265740067293 0.5 L 161.12000230134586 0.5 L 161.12000230134586 3.5 L 168.12000230134586 0 L 161.12000230134586 -3.5 L 161.12000230134586 -0.5 L 110.28265740067293 -0.5 Z"/><text text-anchor="middle" pointer-events="none" font-size="8px" fill="#000000" x="93.06000115067293" y="3" font-family="sans-serif">ORIGIN</text></g><g class="relationship" transform="translate(-39.16124766826341 -277.3174124570953) rotate(369.6618952196403)"><path class="outline" fill="#A5ABB6" stroke="none" d="M 25 0.5 L 91.3022625072457 0.5 L 91.3022625072457 -0.5 L 25 -0.5 Z M 150.4936687572457 0.5 L 216.7959312644914 0.5 L 216.7959312644914 3.5 L 223.7959312644914 0 L 216.7959312644914 -3.5 L 216.7959312644914 -0.5 L 150.4936687572457 -0.5 Z"/><text text-anchor="middle" pointer-events="none" font-size="8px" fill="#000000" x="120.8979656322457" y="3" font-family="sans-serif">DESTINATION</text></g><g class="relationship" transform="translate(-68.30882423915614 -182.19683832122897) rotate(328.58394734913736)"><path class="outline" fill="#A5ABB6" stroke="none" d="M 25 0.5 L 107.25446130754612 0.5 L 107.25446130754612 -0.5 L 25 -0.5 Z M 141.69977380754614 0.5 L 223.95423511509225 0.5 L 223.95423511509225 3.5 L 230.95423511509225 0 L 223.95423511509225 -3.5 L 223.95423511509225 -0.5 L 141.69977380754614 -0.5 Z"/><text text-anchor="middle" pointer-events="none" font-size="8px" fill="#000000" x="124.47711755754612" y="3" font-family="sans-serif">ORIGIN</text></g><g class="relationship" transform="translate(-68.30882423915614 -182.19683832122897) rotate(348.99528216141573)"><path class="outline" fill="#A5ABB6" stroke="none" d="M 25 0.5 L 106.68180680320921 0.5 L 106.68180680320921 -0.5 L 25 -0.5 Z M 165.8732130532092 0.5 L 247.55501985641843 0.5 L 247.55501985641843 3.5 L 254.55501985641843 0 L 247.55501985641843 -3.5 L 247.55501985641843 -0.5 L 165.8732130532092 -0.5 Z"/><text text-anchor="middle" pointer-events="none" font-size="8px" fill="#000000" x="136.2775099282092" y="3" font-family="sans-serif">DESTINATION</text></g><g class="relationship" transform="translate(26.44610537191152 -204.65998674311362) rotate(318.1043437085831)"><path class="outline" fill="#A5ABB6" stroke="none" d="M 25 0.5 L 62.3535971070267 0.5 L 62.3535971070267 -0.5 L 25 -0.5 Z M 96.7989096070267 0.5 L 134.1525067140534 0.5 L 134.1525067140534 3.5 L 141.1525067140534 0 L 134.1525067140534 -3.5 L 134.1525067140534 -0.5 L 96.7989096070267 -0.5 Z"/><text text-anchor="middle" pointer-events="none" font-size="8px" fill="#000000" x="79.5762533570267" y="3" font-family="sans-serif">ORIGIN</text></g><g class="relationship" transform="translate(26.44610537191152 -204.65998674311362) rotate(287.4649943582249)"><path class="outline" fill="#A5ABB6" stroke="none" d="M 25 0.5 L 63.62423051573926 0.5 L 63.62423051573926 -0.5 L 25 -0.5 Z M 122.81563676573926 0.5 L 161.4398672814785 0.5 L 161.4398672814785 3.5 L 168.4398672814785 0 L 161.4398672814785 -3.5 L 161.4398672814785 -0.5 L 122.81563676573926 -0.5 Z"/><text text-anchor="middle" pointer-events="none" font-size="8px" fill="#000000" x="93.21993364073926" y="3" font-family="sans-serif">DESTINATION</text></g><g class="relationship" transform="translate(61.14197600950182 -33.93169964069259) rotate(287.5310961512411)"><path class="outline" fill="#A5ABB6" stroke="none" d="M 25 0.5 L 126.97798790550615 0.5 L 126.97798790550615 -0.5 L 25 -0.5 Z M 161.42330040550615 0.5 L 263.4012883110123 0.5 L 263.4012883110123 3.5 L 270.4012883110123 0 L 263.4012883110123 -3.5 L 263.4012883110123 -0.5 L 161.42330040550615 -0.5 Z"/><text text-anchor="middle" pointer-events="none" font-size="8px" fill="#000000" x="144.20064415550615" y="3" font-family="sans-serif">ORIGIN</text></g><g class="relationship" transform="translate(61.14197600950182 -33.93169964069259) rotate(392.54913096030003)"><path class="outline" fill="#A5ABB6" stroke="none" d="M 25 0.5 L 57.28413603618658 0.5 L 57.28413603618658 -0.5 L 25 -0.5 Z M 116.47554228618658 0.5 L 148.75967832237316 0.5 L 148.75967832237316 3.5 L 155.75967832237316 0 L 148.75967832237316 -3.5 L 148.75967832237316 -0.5 L 116.47554228618658 -0.5 Z"/><text text-anchor="middle" pointer-events="none" font-size="8px" fill="#000000" x="86.87983916118658" y="3" font-family="sans-serif">DESTINATION</text></g><g class="relationship" transform="translate(0.7317779735753516 -111.38766269889554) rotate(306.1857223848741)"><path class="outline" fill="#A5ABB6" stroke="none" d="M 25 0.5 L 105.79395470501714 0.5 L 105.79395470501714 -0.5 L 25 -0.5 Z M 140.23926720501714 0.5 L 221.03322191003429 0.5 L 221.03322191003429 3.5 L 228.03322191003429 0 L 221.03322191003429 -3.5 L 221.03322191003429 -0.5 L 140.23926720501714 -0.5 Z"/><text text-anchor="middle" pointer-events="none" font-size="8px" fill="#000000" x="123.01661095501714" y="3" font-family="sans-serif">ORIGIN</text></g><g class="relationship" transform="translate(0.7317779735753516 -111.38766269889554) rotate(328.8419477776096)"><path class="outline" fill="#A5ABB6" stroke="none" d="M 25 0.5 L 86.90162154342302 0.5 L 86.90162154342302 -0.5 L 25 -0.5 Z M 146.093027793423 0.5 L 207.99464933684604 0.5 L 207.99464933684604 3.5 L 214.99464933684604 0 L 207.99464933684604 -3.5 L 207.99464933684604 -0.5 L 146.093027793423 -0.5 Z"/><text text-anchor="middle" pointer-events="none" font-size="8px" fill="#000000" x="116.49732466842302" y="3" font-family="sans-serif">DESTINATION</text></g><g class="relationship" transform="translate(157.34283874406603 -47.970800844864) rotate(268.45493806652826)"><path class="outline" fill="#A5ABB6" stroke="none" d="M 25 0.5 L 113.1469465255631 0.5 L 113.1469465255631 -0.5 L 25 -0.5 Z M 147.5922590255631 0.5 L 235.7392055511262 0.5 L 235.7392055511262 3.5 L 242.7392055511262 0 L 235.7392055511262 -3.5 L 235.7392055511262 -0.5 L 147.5922590255631 -0.5 Z"/><text text-anchor="middle" pointer-events="none" font-size="8px" fill="#000000" x="130.3696027755631" y="3" transform="rotate(180 130.3696027755631 0)" font-family="sans-serif">ORIGIN</text></g><g class="relationship" transform="translate(157.34283874406603 -47.970800844864) rotate(470.0678790298775)"><path class="outline" fill="#A5ABB6" stroke="none" d="M 25 0.5 L 55.14755484852661 0.5 L 55.14755484852661 -0.5 L 25 -0.5 Z M 114.33896109852661 0.5 L 144.48651594705322 0.5 L 144.48651594705322 3.5 L 151.48651594705322 0 L 144.48651594705322 -3.5 L 144.48651594705322 -0.5 L 114.33896109852661 -0.5 Z"/><text text-anchor="middle" pointer-events="none" font-size="8px" fill="#000000" x="84.74325797352661" y="3" transform="rotate(180 84.74325797352661 0)" font-family="sans-serif">DESTINATION</text></g></g><g class="layer nodes"><g class="node" aria-label="graph-node5" transform="translate(150.12374645603796,-315.61266396736795)"><circle class="outline" cx="0" cy="0" r="25" fill="#ECB5C9" stroke="#da7298" stroke-width="2px"/><text class="caption" text-anchor="middle" pointer-events="none" x="0" y="5" font-size="10px" fill="#2A2C34" font-family="sans-serif"> LAX</text></g><g class="node" aria-label="graph-node13" transform="translate(55.661443984654404,-298.30401583566453)"><circle class="outline" cx="0" cy="0" r="25" fill="#ECB5C9" stroke="#da7298" stroke-width="2px"/><text class="caption" text-anchor="middle" pointer-events="none" x="0" y="5" font-size="10px" fill="#2A2C34" font-family="sans-serif"> SMF</text></g><g class="node" aria-label="graph-node41" transform="translate(213.50980450067541,63.321095425013006)"><circle class="outline" cx="0" cy="0" r="25" fill="#ECB5C9" stroke="#da7298" stroke-width="2px"/><text class="caption" text-anchor="middle" pointer-events="none" x="0" y="5" font-size="10px" fill="#2A2C34" font-family="sans-serif"> FAT</text></g><g class="node" aria-label="graph-node25" transform="translate(504.4909999536575,-158.85036104718353)"><circle class="outline" cx="0" cy="0" r="25" fill="#ECB5C9" stroke="#da7298" stroke-width="2px"/><text class="caption" text-anchor="middle" pointer-events="none" x="0" y="5" font-size="10px" fill="#2A2C34" font-family="sans-serif"> LAS</text></g><g class="node" aria-label="graph-node42" transform="translate(114.96205879178503,-224.42061941855718)"><circle class="outline" cx="0" cy="0" r="25" fill="#ECB5C9" stroke="#da7298" stroke-width="2px"/><text class="caption" text-anchor="middle" pointer-events="none" x="0" y="5" font-size="10px" fill="#2A2C34" font-family="sans-serif"> TUS</text></g><g class="node" aria-label="graph-node40" transform="translate(206.1055893455694,-235.56104677477674)"><circle class="outline" cx="0" cy="0" r="25" fill="#ECB5C9" stroke="#da7298" stroke-width="2px"/><text class="caption" text-anchor="middle" pointer-events="none" x="0" y="5" font-size="10px" fill="#2A2C34" font-family="sans-serif"> ABQ</text></g><g class="node" aria-label="graph-node1" transform="translate(84.50186968123487,-389.1823715215906)"><circle class="outline" cx="0" cy="0" r="25" fill="#ECB5C9" stroke="#da7298" stroke-width="2px"/><text class="caption" text-anchor="middle" pointer-events="none" x="0" y="5" font-size="10px" fill="#2A2C34" font-family="sans-serif"> EWR</text></g><g class="node" aria-label="graph-node2" transform="translate(96.78446129438699,117.80064793866953)"><circle class="outline" cx="0" cy="0" r="25" fill="#ECB5C9" stroke="#da7298" stroke-width="2px"/><text class="caption" text-anchor="middle" pointer-events="none" x="0" y="5" font-size="10px" fill="#2A2C34" font-family="sans-serif"> IAH</text></g><g class="node" aria-label="graph-node1003" transform="translate(96.83025258416922,-127.73289280279775)"><circle class="outline" cx="0" cy="0" r="25" fill="#8DCC93" stroke="#5db665" stroke-width="2px"/><text class="caption" text-anchor="middle" pointer-events="none" x="0" y="0" font-size="10px" fill="#2A2C34" font-family="sans-serif"> 11/4/2015</text><text class="caption" text-anchor="middle" pointer-events="none" x="0" y="10" font-size="10px" fill="#2A2C34" font-family="sans-serif"> 05:06:…</text></g><g class="node" aria-label="graph-node963" transform="translate(194.13991762306273,-138.27433030894505)"><circle class="outline" cx="0" cy="0" r="25" fill="#8DCC93" stroke="#5db665" stroke-width="2px"/><text class="caption" text-anchor="middle" pointer-events="none" x="0" y="0" font-size="10px" fill="#2A2C34" font-family="sans-serif"> 11/4/2015</text><text class="caption" text-anchor="middle" pointer-events="none" x="0" y="10" font-size="10px" fill="#2A2C34" font-family="sans-serif"> 15:13:…</text></g><g class="node" aria-label="graph-node659" transform="translate(399.8685232962633,-274.99672225024)"><circle class="outline" cx="0" cy="0" r="25" fill="#8DCC93" stroke="#5db665" stroke-width="2px"/><text class="caption" text-anchor="middle" pointer-events="none" x="0" y="5" font-size="10px" fill="#2A2C34" font-family="sans-serif"> 11/29/20…</text></g><g class="node" aria-label="graph-node995" transform="translate(247.1995271154001,-326.0693791490622)"><circle class="outline" cx="0" cy="0" r="25" fill="#8DCC93" stroke="#5db665" stroke-width="2px"/><text class="caption" text-anchor="middle" pointer-events="none" x="0" y="0" font-size="10px" fill="#2A2C34" font-family="sans-serif"> 11/2/2015</text><text class="caption" text-anchor="middle" pointer-events="none" x="0" y="10" font-size="10px" fill="#2A2C34" font-family="sans-serif"> 11:49:…</text></g><g class="node" aria-label="graph-node979" transform="translate(305.2865524786375,-246.29797582103683)"><circle class="outline" cx="0" cy="0" r="25" fill="#8DCC93" stroke="#5db665" stroke-width="2px"/><text class="caption" text-anchor="middle" pointer-events="none" x="0" y="0" font-size="10px" fill="#2A2C34" font-family="sans-serif"> 11/1/2015</text><text class="caption" text-anchor="middle" pointer-events="none" x="0" y="10" font-size="10px" fill="#2A2C34" font-family="sans-serif"> 05:51:…</text></g><g class="node" aria-label="graph-node975" transform="translate(341.5920055493899,-354.4146502425721)"><circle class="outline" cx="0" cy="0" r="25" fill="#8DCC93" stroke="#5db665" stroke-width="2px"/><text class="caption" text-anchor="middle" pointer-events="none" x="0" y="0" font-size="10px" fill="#2A2C34" font-family="sans-serif"> 11/2/2015</text><text class="caption" text-anchor="middle" pointer-events="none" x="0" y="10" font-size="10px" fill="#2A2C34" font-family="sans-serif"> 15:15:…</text></g><g class="node" aria-label="graph-node951" transform="translate(292.561302062941,-148.3529754242058)"><circle class="outline" cx="0" cy="0" r="25" fill="#8DCC93" stroke="#5db665" stroke-width="2px"/><text class="caption" text-anchor="middle" pointer-events="none" x="0" y="0" font-size="10px" fill="#2A2C34" font-family="sans-serif"> 11/3/2015</text><text class="caption" text-anchor="middle" pointer-events="none" x="0" y="10" font-size="10px" fill="#2A2C34" font-family="sans-serif"> 11:45:…</text></g><g class="node" aria-label="graph-node959" transform="translate(254.21432334599024,-59.720259166566635)"><circle class="outline" cx="0" cy="0" r="25" fill="#8DCC93" stroke="#5db665" stroke-width="2px"/><text class="caption" text-anchor="middle" pointer-events="none" x="0" y="0" font-size="10px" fill="#2A2C34" font-family="sans-serif"> 11/1/2015</text><text class="caption" text-anchor="middle" pointer-events="none" x="0" y="10" font-size="10px" fill="#2A2C34" font-family="sans-serif"> 02:27:…</text></g><g class="node" aria-label="graph-node999" transform="translate(89.53985424228627,-489.0981308520784)"><circle class="outline" cx="0" cy="0" r="25" fill="#8DCC93" stroke="#5db665" stroke-width="2px"/><text class="caption" text-anchor="middle" pointer-events="none" x="0" y="0" font-size="10px" fill="#2A2C34" font-family="sans-serif"> 11/1/2015</text><text class="caption" text-anchor="middle" pointer-events="none" x="0" y="10" font-size="10px" fill="#2A2C34" font-family="sans-serif"> 12:26:…</text></g><g class="node" aria-label="graph-node931" transform="translate(172.6514689632779,-436.0705194994837)"><circle class="outline" cx="0" cy="0" r="25" fill="#8DCC93" stroke="#5db665" stroke-width="2px"/><text class="caption" text-anchor="middle" pointer-events="none" x="0" y="0" font-size="10px" fill="#2A2C34" font-family="sans-serif"> 11/3/2015</text><text class="caption" text-anchor="middle" pointer-events="none" x="0" y="10" font-size="10px" fill="#2A2C34" font-family="sans-serif"> 21:46:…</text></g><g class="node" aria-label="graph-node1007" transform="translate(-6.351956047987687,-468.1196560638494)"><circle class="outline" cx="0" cy="0" r="25" fill="#8DCC93" stroke="#5db665" stroke-width="2px"/><text class="caption" text-anchor="middle" pointer-events="none" x="0" y="0" font-size="10px" fill="#2A2C34" font-family="sans-serif"> 11/3/2015</text><text class="caption" text-anchor="middle" pointer-events="none" x="0" y="10" font-size="10px" fill="#2A2C34" font-family="sans-serif"> 13:44:…</text></g><g class="node" aria-label="graph-node927" transform="translate(-8.733673037811887,-369.86792943950655)"><circle class="outline" cx="0" cy="0" r="25" fill="#8DCC93" stroke="#5db665" stroke-width="2px"/><text class="caption" text-anchor="middle" pointer-events="none" x="0" y="0" font-size="10px" fill="#2A2C34" font-family="sans-serif"> 11/1/2015</text><text class="caption" text-anchor="middle" pointer-events="none" x="0" y="10" font-size="10px" fill="#2A2C34" font-family="sans-serif"> 05:43:…</text></g><g class="node" aria-label="graph-node983" transform="translate(-105.89926252203168,-346.327768212922)"><circle class="outline" cx="0" cy="0" r="25" fill="#8DCC93" stroke="#5db665" stroke-width="2px"/><text class="caption" text-anchor="middle" pointer-events="none" x="0" y="0" font-size="10px" fill="#2A2C34" font-family="sans-serif"> 11/2/2015</text><text class="caption" text-anchor="middle" pointer-events="none" x="0" y="10" font-size="10px" fill="#2A2C34" font-family="sans-serif"> 09:52:…</text></g><g class="node" aria-label="graph-node971" transform="translate(270.81379768853975,-422.57688342610106)"><circle class="outline" cx="0" cy="0" r="25" fill="#8DCC93" stroke="#5db665" stroke-width="2px"/><text class="caption" text-anchor="middle" pointer-events="none" x="0" y="0" font-size="10px" fill="#2A2C34" font-family="sans-serif"> 11/1/2015</text><text class="caption" text-anchor="middle" pointer-events="none" x="0" y="10" font-size="10px" fill="#2A2C34" font-family="sans-serif"> 17:17:…</text></g><g class="node" aria-label="graph-node919" transform="translate(-39.16124766826341,-277.3174124570953)"><circle class="outline" cx="0" cy="0" r="25" fill="#8DCC93" stroke="#5db665" stroke-width="2px"/><text class="caption" text-anchor="middle" pointer-events="none" x="0" y="0" font-size="10px" fill="#2A2C34" font-family="sans-serif"> 11/2/2015</text><text class="caption" text-anchor="middle" pointer-events="none" x="0" y="10" font-size="10px" fill="#2A2C34" font-family="sans-serif"> 04:43:…</text></g><g class="node" aria-label="graph-node923" transform="translate(-68.30882423915614,-182.19683832122897)"><circle class="outline" cx="0" cy="0" r="25" fill="#8DCC93" stroke="#5db665" stroke-width="2px"/><text class="caption" text-anchor="middle" pointer-events="none" x="0" y="0" font-size="10px" fill="#2A2C34" font-family="sans-serif"> 11/4/2015</text><text class="caption" text-anchor="middle" pointer-events="none" x="0" y="10" font-size="10px" fill="#2A2C34" font-family="sans-serif"> 15:09:…</text></g><g class="node" aria-label="graph-node135" transform="translate(26.44610537191152,-204.65998674311362)"><circle class="outline" cx="0" cy="0" r="25" fill="#8DCC93" stroke="#5db665" stroke-width="2px"/><text class="caption" text-anchor="middle" pointer-events="none" x="0" y="5" font-size="10px" fill="#2A2C34" font-family="sans-serif"> 11/30/20…</text></g><g class="node" aria-label="graph-node955" transform="translate(61.14197600950182,-33.93169964069259)"><circle class="outline" cx="0" cy="0" r="25" fill="#8DCC93" stroke="#5db665" stroke-width="2px"/><text class="caption" text-anchor="middle" pointer-events="none" x="0" y="0" font-size="10px" fill="#2A2C34" font-family="sans-serif"> 11/2/2015</text><text class="caption" text-anchor="middle" pointer-events="none" x="0" y="10" font-size="10px" fill="#2A2C34" font-family="sans-serif"> 09:18:…</text></g><g class="node" aria-label="graph-node967" transform="translate(0.7317779735753516,-111.38766269889554)"><circle class="outline" cx="0" cy="0" r="25" fill="#8DCC93" stroke="#5db665" stroke-width="2px"/><text class="caption" text-anchor="middle" pointer-events="none" x="0" y="0" font-size="10px" fill="#2A2C34" font-family="sans-serif"> 11/3/2015</text><text class="caption" text-anchor="middle" pointer-events="none" x="0" y="10" font-size="10px" fill="#2A2C34" font-family="sans-serif"> 23:26:…</text></g><g class="node" aria-label="graph-node103" transform="translate(157.34283874406603,-47.970800844864)"><circle class="outline" cx="0" cy="0" r="25" fill="#8DCC93" stroke="#5db665" stroke-width="2px"/><text class="caption" text-anchor="middle" pointer-events="none" x="0" y="5" font-size="10px" fill="#2A2C34" font-family="sans-serif"> 11/30/20…</text></g></g></svg>