<svg xmlns="http://www.w3.org/2000/svg" width="423.0583190917969" height="250.38909912109375" viewBox="-277.93084716796875 -139.06793212890625 423.0583190917969 250.38909912109375"><title>Neo4j Graph Visualization</title><desc>Created using Neo4j (http://www.neo4j.com/)</desc><g class="layer relationships"><g class="relationship" transform="translate(110.59696946373998 82.32117006274794) rotate(272.2136067916586)"><path class="outline" fill="#A5ABB6" stroke="none" d="M 24.018736134675446,-6.953439040707552 L 24.277555179777966,-5.987513214418485 A 177.42548859668187 177.42548859668187 0 0 1 57.092009031495905,-11.548375926609907 L 57.01813778679827,-12.54564371371967 A 178.42548859668187 178.42548859668187 0 0 0 24.018736134675446,-6.953439040707552 Z M 79.0760292939449,-12.812160824808359 L 79.0262753117726,-11.813399321115924 A 177.42548859668187 177.42548859668187 0 0 1 111.96550937964679,-7.047013403865552 L 111.2592941848384,-4.131321359320772 L 118.88649334938601,-5.885126623403402 L 112.90712963939133,-10.934602796591927 L 112.20091444458293,-8.018910752047146 A 178.42548859668187 178.42548859668187 0 0 0 79.0760292939449,-12.812160824808359"/><text text-anchor="middle" pointer-events="none" font-size="8px" fill="#000000" x="68.04900163638136" y="-9.520153911565586" font-family="sans-serif">road</text></g><g class="relationship" transform="translate(116.12746529459487 -60.75590910246594) rotate(538.8932556348279)"><path class="outline" fill="#A5ABB6" stroke="none" d="M 21.40063509461097,-12.933012701892217 L 21.90063509461097,-12.06698729810778 A 96.19513425595436 96.19513425595436 0 0 1 44.91769248431361,-21.62759210217294 L 44.65696713752486,-22.593005119250023 A 97.19513425595436 97.19513425595436 0 0 0 21.40063509461097,-12.933012701892217 Z M 90.90123063353249,-23.680353380530747 L 90.68616813507555,-22.703753092922028 A 96.19513425595436 96.19513425595436 0 0 1 114.12714021055822,-14.23552286123724 L 112.750908294174,-11.569817380069939 L 120.5764916526793,-11.468599303201922 L 115.96211609907053,-17.789796836126975 L 114.5858841826863,-15.124091354959674 A 97.19513425595436 97.19513425595436 0 0 0 90.90123063353249,-23.680353380530747"/><text text-anchor="middle" pointer-events="none" font-size="8px" fill="#000000" x="67.725223358366" y="-22.4279728149924" transform="rotate(180 67.725223358366 -25.4279728149924)" font-family="sans-serif">twowheeler</text></g><g class="relationship" transform="translate(-26.63660044383784 -57.99788781329088) rotate(201.4027388917018)"><path class="outline" fill="#A5ABB6" stroke="none" d="M 21.40063509461097,12.933012701892217 L 21.90063509461097,12.06698729810778 A 96.09087812541516 96.09087812541516 0 0 0 44.86719147539891,21.61032497453664 L 44.60620018079145,22.575666128812742 A 97.09087812541516 97.09087812541516 0 0 1 21.40063509461097,12.933012701892217 Z M 90.84973817619321,23.663744780976884 L 90.63443819722019,22.687196820529365 A 96.09087812541516 96.09087812541516 0 0 0 114.02442661882009,14.234596768729968 L 112.64828082887408,11.568846824565309 L 120.47386745352863,11.4678815828834 L 115.85928767208142,17.788930027616182 L 114.48314188213541,15.123180083451523 A 97.09087812541516 97.09087812541516 0 0 1 90.84973817619321,23.663744780976884"/><text text-anchor="middle" pointer-events="none" font-size="8px" fill="#000000" x="67.67398606990163" y="28.413997258395128" transform="rotate(180 67.67398606990163 25.413997258395128)" font-family="sans-serif">twowheeler</text></g><g class="relationship" transform="translate(-159.4850230359284 -110.06794129860769) rotate(487.9117787255693)"><path class="outline" fill="#A5ABB6" stroke="none" d="M 25 0.5 L 59.61762627448287 0.5 L 59.61762627448287 -0.5 L 25 -0.5 Z M 78.95356377448287 0.5 L 113.57119004896575 0.5 L 113.57119004896575 3.5 L 120.57119004896575 0 L 113.57119004896575 -3.5 L 113.57119004896575 -0.5 L 78.95356377448287 -0.5 Z"/><text text-anchor="middle" pointer-events="none" font-size="8px" fill="#000000" x="69.28559502448287" y="3" transform="rotate(180 69.28559502448287 0)" font-family="sans-serif">trek</text></g><g class="relationship" transform="translate(-26.63660044383784 -57.99788781329088) rotate(201.4027388917018)"><path class="outline" fill="#A5ABB6" stroke="none" d="M 25 0.5 L 58.17625641078375 0.5 L 58.17625641078375 -0.5 L 25 -0.5 Z M 77.51219391078375 0.5 L 110.6884503215675 0.5 L 110.6884503215675 3.5 L 117.6884503215675 0 L 110.6884503215675 -3.5 L 110.6884503215675 -0.5 L 77.51219391078375 -0.5 Z"/><text text-anchor="middle" pointer-events="none" font-size="8px" fill="#000000" x="67.84422516078375" y="3" transform="rotate(180 67.84422516078375 0)" font-family="sans-serif">trek</text></g><g class="relationship" transform="translate(-26.63660044383784 -57.99788781329088) rotate(201.4027388917018)"><path class="outline" fill="#A5ABB6" stroke="none" d="M 21.40063509461097,-12.933012701892217 L 21.90063509461097,-12.06698729810778 A 96.09087812541516 96.09087812541516 0 0 1 56.77821591316379,-24.034216168129944 L 56.64118044735227,-25.024782309843772 A 97.09087812541516 97.09087812541516 0 0 0 21.40063509461097,-12.933012701892217 Z M 78.71288808536089,-25.544114414150187 L 78.62259315655493,-24.548199344562462 A 96.09087812541516 96.09087812541516 0 0 1 114.02442661882009,-14.234596768729968 L 112.64828082887408,-11.568846824565309 L 120.47386745352863,-11.4678815828834 L 115.85928767208142,-17.788930027616182 L 114.48314188213541,-15.123180083451523 A 97.09087812541516 97.09087812541516 0 0 0 78.71288808536089,-25.544114414150187"/><text text-anchor="middle" pointer-events="none" font-size="8px" fill="#000000" x="67.67398606990163" y="-22.413997258395128" transform="rotate(180 67.67398606990163 -25.413997258395128)" font-family="sans-serif">road</text></g><g class="relationship" transform="translate(110.59696946373998 82.32117006274794) rotate(272.2136067916586)"><path class="outline" fill="#A5ABB6" stroke="none" d="M 24.018736134675446,6.953439040707552 L 24.277555179777966,5.987513214418485 A 177.42548859668187 177.42548859668187 0 0 0 58.422852826139824,11.64192671505964 L 58.35648244169158,12.63972177020284 A 178.42548859668187 178.42548859668187 0 0 1 24.018736134675446,6.953439040707552 Z M 77.73580226418683,12.873874718696669 L 77.69355969218522,11.87476733452283 A 177.42548859668187 177.42548859668187 0 0 0 111.96550937964679,7.047013403865552 L 111.2592941848384,4.131321359320772 L 118.88649334938601,5.885126623403402 L 112.90712963939133,10.934602796591927 L 112.20091444458293,8.018910752047146 A 178.42548859668187 178.42548859668187 0 0 1 77.73580226418683,12.873874718696669"/><text text-anchor="middle" pointer-events="none" font-size="8px" fill="#000000" x="68.04900163638138" y="15.520153911565586" font-family="sans-serif">trek</text></g><g class="relationship" transform="translate(116.12746529459487 -60.75590910246594) rotate(538.8932556348279)"><path class="outline" fill="#A5ABB6" stroke="none" d="M 25 0.5 L 56.88949262287008 0.5 L 56.88949262287008 -0.5 L 25 -0.5 Z M 78.90121137287008 0.5 L 110.79070399574016 0.5 L 110.79070399574016 3.5 L 117.79070399574016 0 L 110.79070399574016 -3.5 L 110.79070399574016 -0.5 L 78.90121137287008 -0.5 Z"/><text text-anchor="middle" pointer-events="none" font-size="8px" fill="#000000" x="67.89535199787008" y="3" transform="rotate(180 67.89535199787008 0)" font-family="sans-serif">road</text></g><g class="relationship" transform="translate(116.12746529459487 -60.75590910246594) rotate(538.8932556348279)"><path class="outline" fill="#A5ABB6" stroke="none" d="M 21.40063509461097,12.933012701892217 L 21.90063509461097,12.06698729810778 A 96.19513425595436 96.19513425595436 0 0 0 58.14896309125229,24.222112204108655 L 58.02578389697197,25.21449664881567 A 97.19513425595436 97.19513425595436 0 0 1 21.40063509461097,12.933012701892217 Z M 77.42397716980147,25.67060925895636 L 77.34757648365542,24.673532062769226 A 96.19513425595436 96.19513425595436 0 0 0 114.12714021055822,14.23552286123724 L 112.750908294174,11.569817380069939 L 120.5764916526793,11.468599303201922 L 115.96211609907053,17.789796836126975 L 114.5858841826863,15.124091354959674 A 97.19513425595436 97.19513425595436 0 0 1 77.42397716980147,25.67060925895636"/><text text-anchor="middle" pointer-events="none" font-size="8px" fill="#000000" x="67.72522335836601" y="28.4279728149924" transform="rotate(180 67.72522335836601 25.4279728149924)" font-family="sans-serif">trek</text></g></g><g class="layer nodes"><g class="node" aria-label="graph-node521" transform="translate(110.59696946373998,82.32117006274794)"><circle class="outline" cx="0" cy="0" r="25" fill="#57C7E3" stroke="#23b3d7" stroke-width="2px"/><text class="caption" text-anchor="middle" pointer-events="none" x="0" y="5" font-size="10px" fill="#2A2C34" font-family="sans-serif"> Darjeeling</text></g><g class="node" aria-label="graph-node523" transform="translate(-248.93086301659002,4.7815823504957855)"><circle class="outline" cx="0" cy="0" r="25" fill="#F16667" stroke="#eb2728" stroke-width="2px"/><text class="caption" text-anchor="middle" pointer-events="none" x="0" y="5" font-size="10px" fill="#FFFFFF" font-family="sans-serif"> Sandakp…</text></g><g class="node" aria-label="graph-node526" transform="translate(116.12746529459487,-60.75590910246594)"><circle class="outline" cx="0" cy="0" r="25" fill="#D9C8AE" stroke="#c0a378" stroke-width="2px"/><text class="caption" text-anchor="middle" pointer-events="none" x="0" y="5" font-size="10px" fill="#2A2C34" font-family="sans-serif"> Tumbling</text></g><g class="node" aria-label="graph-node527" transform="translate(-26.63660044383784,-57.99788781329088)"><circle class="outline" cx="0" cy="0" r="25" fill="#D9C8AE" stroke="#c0a378" stroke-width="2px"/><text class="caption" text-anchor="middle" pointer-events="none" x="0" y="5" font-size="10px" fill="#2A2C34" font-family="sans-serif"> Gairibus</text></g><g class="node" aria-label="graph-node522" transform="translate(-159.4850230359284,-110.06794129860769)"><circle class="outline" cx="0" cy="0" r="25" fill="#D9C8AE" stroke="#c0a378" stroke-width="2px"/><text class="caption" text-anchor="middle" pointer-events="none" x="0" y="5" font-size="10px" fill="#2A2C34" font-family="sans-serif"> BhikeBh…</text></g></g></svg>