<svg xmlns="http://www.w3.org/2000/svg" width="443.7651672363281" height="272.0856018066406" viewBox="-291.9308776855469 -142.49630737304688 443.7651672363281 272.0856018066406"><title>Neo4j Graph Visualization</title><desc>Created using Neo4j (http://www.neo4j.com/)</desc><g class="layer relationships"><g class="relationship" transform="translate(122.83428526669698 -39.21379841276512) rotate(462.4645897115286)"><path class="outline" fill="#A5ABB6" stroke="none" d="M 25 0.5 L 50.86626575217211 0.5 L 50.86626575217211 -0.5 L 25 -0.5 Z M 85.31157825217211 0.5 L 111.17784400434422 0.5 L 111.17784400434422 3.5 L 118.17784400434422 0 L 111.17784400434422 -3.5 L 111.17784400434422 -0.5 L 85.31157825217211 -0.5 Z"/><text text-anchor="middle" pointer-events="none" font-size="8px" fill="#000000" x="68.08892200217211" y="3" transform="rotate(180 68.08892200217211 0)" font-family="sans-serif">ORIGIN</text></g><g class="relationship" transform="translate(122.83428526669698 -39.21379841276512) rotate(210.7301621548428)"><path class="outline" fill="#A5ABB6" stroke="none" d="M 25 0.5 L 39.58841305104674 0.5 L 39.58841305104674 -0.5 L 25 -0.5 Z M 98.77981930104674 0.5 L 113.36823235209349 0.5 L 113.36823235209349 3.5 L 120.36823235209349 0 L 113.36823235209349 -3.5 L 113.36823235209349 -0.5 L 98.77981930104674 -0.5 Z"/><text text-anchor="middle" pointer-events="none" font-size="8px" fill="#000000" x="69.18411617604674" y="3" transform="rotate(180 69.18411617604674 0)" font-family="sans-serif">DESTINATION</text></g><g class="relationship" transform="translate(-138.72654390036095 -64.36691874213497) rotate(340.2190613004558)"><path class="outline" fill="#A5ABB6" stroke="none" d="M 25 0.5 L 51.86271480235715 0.5 L 51.86271480235715 -0.5 L 25 -0.5 Z M 86.30802730235715 0.5 L 113.1707421047143 0.5 L 113.1707421047143 3.5 L 120.1707421047143 0 L 113.1707421047143 -3.5 L 113.1707421047143 -0.5 L 86.30802730235715 -0.5 Z"/><text text-anchor="middle" pointer-events="none" font-size="8px" fill="#000000" x="69.08537105235715" y="3" font-family="sans-serif">ORIGIN</text></g><g class="relationship" transform="translate(-138.72654390036095 -64.36691874213497) rotate(508.15385373113946)"><path class="outline" fill="#A5ABB6" stroke="none" d="M 25 0.5 L 40.01141709588839 0.5 L 40.01141709588839 -0.5 L 25 -0.5 Z M 99.20282334588839 0.5 L 114.21424044177678 0.5 L 114.21424044177678 3.5 L 121.21424044177678 0 L 114.21424044177678 -3.5 L 114.21424044177678 -0.5 L 99.20282334588839 -0.5 Z"/><text text-anchor="middle" pointer-events="none" font-size="8px" fill="#000000" x="69.60712022088839" y="3" transform="rotate(180 69.60712022088839 0)" font-family="sans-serif">DESTINATION</text></g></g><g class="layer nodes"><g class="node" aria-label="graph-node21" transform="translate(91.93132403593931,100.58928453214928)"><circle class="outline" cx="0" cy="0" r="25" fill="#ECB5C9" stroke="#da7298" stroke-width="2px"/><text class="caption" text-anchor="middle" pointer-events="none" x="0" y="5" font-size="10px" fill="#2A2C34" font-family="sans-serif"> MSN</text></g><g class="node" aria-label="graph-node68" transform="translate(-262.93086301659,12.781582350495796)"><circle class="outline" cx="0" cy="0" r="25" fill="#ECB5C9" stroke="#da7298" stroke-width="2px"/><text class="caption" text-anchor="middle" pointer-events="none" x="0" y="5" font-size="10px" fill="#2A2C34" font-family="sans-serif"> GRR</text></g><g class="node" aria-label="graph-node271" transform="translate(122.83428526669698,-39.21379841276512)"><circle class="outline" cx="0" cy="0" r="25" fill="#8DCC93" stroke="#5db665" stroke-width="2px"/><text class="caption" text-anchor="middle" pointer-events="none" x="0" y="5" font-size="10px" fill="#2A2C34" font-family="sans-serif"> 11/30/20…</text></g><g class="node" aria-label="graph-node7" transform="translate(-2.1218323933563386,-113.49631073228181)"><circle class="outline" cx="0" cy="0" r="25" fill="#ECB5C9" stroke="#da7298" stroke-width="2px"/><text class="caption" text-anchor="middle" pointer-events="none" x="0" y="5" font-size="10px" fill="#2A2C34" font-family="sans-serif"> ORD</text></g><g class="node" aria-label="graph-node851" transform="translate(-138.72654390036095,-64.36691874213497)"><circle class="outline" cx="0" cy="0" r="25" fill="#8DCC93" stroke="#5db665" stroke-width="2px"/><text class="caption" text-anchor="middle" pointer-events="none" x="0" y="5" font-size="10px" fill="#2A2C34" font-family="sans-serif"> 11/17/20…</text></g></g></svg>