<svg xmlns="http://www.w3.org/2000/svg" width="323.3184509277344" height="293.90887451171875" viewBox="-175.2906494140625 -96.64754486083984 323.3184509277344 293.90887451171875"><title>Neo4j Graph Visualization</title><desc>Created using Neo4j (http://www.neo4j.com/)</desc><g class="layer relationships"><g class="relationship" transform="translate(100.78342077266242 168.26133289181033) rotate(219.3559359393305)"><path class="outline" fill="#A5ABB6" stroke="none" d="M 25 0.5 L 45.46205661177211 0.5 L 45.46205661177211 -0.5 L 25 -0.5 Z M 91.02455661177211 0.5 L 111.48661322354423 0.5 L 111.48661322354423 3.5 L 118.48661322354423 0 L 111.48661322354423 -3.5 L 111.48661322354423 -0.5 L 91.02455661177211 -0.5 Z"/><text text-anchor="middle" pointer-events="none" font-size="8px" fill="#000000" x="68.24330661177211" y="3" transform="rotate(180 68.24330661177211 0)" font-family="sans-serif">ACTED_IN</text></g><g class="relationship" transform="translate(119.02779145123318 10.440989619379378) rotate(512.6475975170374)"><path class="outline" fill="#A5ABB6" stroke="none" d="M 25 0.5 L 45.78137333455355 0.5 L 45.78137333455355 -0.5 L 25 -0.5 Z M 92.67199833455355 0.5 L 113.4533716691071 0.5 L 113.4533716691071 3.5 L 120.4533716691071 0 L 113.4533716691071 -3.5 L 113.4533716691071 -0.5 L 92.67199833455355 -0.5 Z"/><text text-anchor="middle" pointer-events="none" font-size="8px" fill="#000000" x="69.22668583455355" y="3" transform="rotate(180 69.22668583455355 0)" font-family="sans-serif">DIRECTED</text></g><g class="relationship" transform="translate(8.289163197485378 -67.64754327292228) rotate(457.2564857934021)"><path class="outline" fill="#A5ABB6" stroke="none" d="M 25 0.5 L 51.65774070869624 0.5 L 51.65774070869624 -0.5 L 25 -0.5 Z M 87.43117820869624 0.5 L 114.08891891739248 0.5 L 114.08891891739248 3.5 L 121.08891891739248 0 L 114.08891891739248 -3.5 L 114.08891891739248 -0.5 L 87.43117820869624 -0.5 Z"/><text text-anchor="middle" pointer-events="none" font-size="8px" fill="#000000" x="69.54445945869624" y="3" transform="rotate(180 69.54445945869624 0)" font-family="sans-serif">WROTE</text></g><g class="relationship" transform="translate(-112.33736770616328 -25.841202825846825) rotate(405.26197621252874)"><path class="outline" fill="#A5ABB6" stroke="none" d="M 25 0.5 L 46.299196451018915 0.5 L 46.299196451018915 -0.5 L 25 -0.5 Z M 91.86169645101891 0.5 L 113.16089290203783 0.5 L 113.16089290203783 3.5 L 120.16089290203783 0 L 113.16089290203783 -3.5 L 113.16089290203783 -0.5 L 91.86169645101891 -0.5 Z"/><text text-anchor="middle" pointer-events="none" font-size="8px" fill="#000000" x="69.08044645101891" y="3" font-family="sans-serif">ACTED_IN</text></g><g class="relationship" transform="translate(-146.29064764625468 122.61039075487083) rotate(341.5789244642051)"><path class="outline" fill="#A5ABB6" stroke="none" d="M 25 0.5 L 50.3527928958155 0.5 L 50.3527928958155 -0.5 L 25 -0.5 Z M 86.1262303958155 0.5 L 111.479023291631 0.5 L 111.479023291631 3.5 L 118.479023291631 0 L 111.479023291631 -3.5 L 111.479023291631 -0.5 L 86.1262303958155 -0.5 Z"/><text text-anchor="middle" pointer-events="none" font-size="8px" fill="#000000" x="68.2395116458155" y="3" font-family="sans-serif">WROTE</text></g></g><g class="layer nodes"><g class="node" aria-label="graph-node513" transform="translate(-10.16351247854867,77.27129950070595)"><circle class="outline" cx="0" cy="0" r="25" fill="#F79767" stroke="#f36924" stroke-width="2px"/><text class="caption" text-anchor="middle" pointer-events="none" x="0" y="-5" font-size="10px" fill="#FFFFFF" font-family="sans-serif"> Captain</text><text class="caption" text-anchor="middle" pointer-events="none" x="0" y="5" font-size="10px" fill="#FFFFFF" font-family="sans-serif"> America:</text><text class="caption" text-anchor="middle" pointer-events="none" x="0" y="15" font-size="10px" fill="#FFFFFF" font-family="sans-serif"> Th</text></g><g class="node" aria-label="graph-node514" transform="translate(100.78342077266242,168.26133289181033)"><circle class="outline" cx="0" cy="0" r="25" fill="#C990C0" stroke="#b261a5" stroke-width="2px"/><text class="caption" text-anchor="middle" pointer-events="none" x="0" y="0" font-size="10px" fill="#FFFFFF" font-family="sans-serif"> Chris</text><text class="caption" text-anchor="middle" pointer-events="none" x="0" y="10" font-size="10px" fill="#FFFFFF" font-family="sans-serif"> Evans</text></g><g class="node" aria-label="graph-node516" transform="translate(119.02779145123318,10.440989619379378)"><circle class="outline" cx="0" cy="0" r="25" fill="#C990C0" stroke="#b261a5" stroke-width="2px"/><text class="caption" text-anchor="middle" pointer-events="none" x="0" y="0" font-size="10px" fill="#FFFFFF" font-family="sans-serif"> Joe</text><text class="caption" text-anchor="middle" pointer-events="none" x="0" y="10" font-size="10px" fill="#FFFFFF" font-family="sans-serif"> Johnst…</text></g><g class="node" aria-label="graph-node518" transform="translate(8.289163197485378,-67.64754327292228)"><circle class="outline" cx="0" cy="0" r="25" fill="#C990C0" stroke="#b261a5" stroke-width="2px"/><text class="caption" text-anchor="middle" pointer-events="none" x="0" y="0" font-size="10px" fill="#FFFFFF" font-family="sans-serif"> Stephen</text><text class="caption" text-anchor="middle" pointer-events="none" x="0" y="10" font-size="10px" fill="#FFFFFF" font-family="sans-serif"> McFe…</text></g><g class="node" aria-label="graph-node515" transform="translate(-112.33736770616328,-25.841202825846825)"><circle class="outline" cx="0" cy="0" r="25" fill="#C990C0" stroke="#b261a5" stroke-width="2px"/><text class="caption" text-anchor="middle" pointer-events="none" x="0" y="0" font-size="10px" fill="#FFFFFF" font-family="sans-serif"> Samuel L.</text><text class="caption" text-anchor="middle" pointer-events="none" x="0" y="10" font-size="10px" fill="#FFFFFF" font-family="sans-serif"> Jackson</text></g><g class="node" aria-label="graph-node517" transform="translate(-146.29064764625468,122.61039075487083)"><circle class="outline" cx="0" cy="0" r="25" fill="#C990C0" stroke="#b261a5" stroke-width="2px"/><text class="caption" text-anchor="middle" pointer-events="none" x="0" y="5" font-size="10px" fill="#FFFFFF" font-family="sans-serif"> Christop…</text></g></g></svg>