<svg xmlns="http://www.w3.org/2000/svg" width="326.1226806640625" height="285.71856689453125" viewBox="-183.04397583007812 -84.41783142089844 326.1226806640625 285.71856689453125"><title>Neo4j Graph Visualization</title><desc>Created using Neo4j (http://www.neo4j.com/)</desc><g class="layer relationships"><g class="relationship" transform="translate(-15.68377980865341 87.91543588035411) rotate(395.96628087899876)"><path class="outline" fill="#A5ABB6" stroke="none" d="M 25 0.5 L 45.559379816616584 0.5 L 45.559379816616584 -0.5 L 25 -0.5 Z M 91.12187981661658 0.5 L 111.68125963323317 0.5 L 111.68125963323317 3.5 L 118.68125963323317 0 L 111.68125963323317 -3.5 L 111.68125963323317 -0.5 L 91.12187981661658 -0.5 Z"/><text text-anchor="middle" pointer-events="none" font-size="8px" fill="#000000" x="68.34062981661658" y="3" font-family="sans-serif">ACTED_IN</text></g><g class="relationship" transform="translate(-15.68377980865341 87.91543588035411) rotate(332.9196462312915)"><path class="outline" fill="#A5ABB6" stroke="none" d="M 25 0.5 L 46.58881832335665 0.5 L 46.58881832335665 -0.5 L 25 -0.5 Z M 92.15131832335665 0.5 L 113.7401366467133 0.5 L 113.7401366467133 3.5 L 120.7401366467133 0 L 113.7401366467133 -3.5 L 113.7401366467133 -0.5 L 92.15131832335665 -0.5 Z"/><text text-anchor="middle" pointer-events="none" font-size="8px" fill="#000000" x="69.37006832335665" y="3" font-family="sans-serif">ACTED_IN</text></g><g class="relationship" transform="translate(-15.68377980865341 87.91543588035411) rotate(281.81984664001715)"><path class="outline" fill="#A5ABB6" stroke="none" d="M 25 0.5 L 46.93788625247066 0.5 L 46.93788625247066 -0.5 L 25 -0.5 Z M 92.50038625247066 0.5 L 114.43827250494132 0.5 L 114.43827250494132 3.5 L 121.43827250494132 0 L 114.43827250494132 -3.5 L 114.43827250494132 -0.5 L 92.50038625247066 -0.5 Z"/><text text-anchor="middle" pointer-events="none" font-size="8px" fill="#000000" x="69.71913625247066" y="3" font-family="sans-serif">ACTED_IN</text></g><g class="relationship" transform="translate(-15.68377980865341 87.91543588035411) rotate(230.1096882487248)"><path class="outline" fill="#A5ABB6" stroke="none" d="M 25 0.5 L 46.460567030197154 0.5 L 46.460567030197154 -0.5 L 25 -0.5 Z M 92.02306703019715 0.5 L 113.48363406039431 0.5 L 113.48363406039431 3.5 L 120.48363406039431 0 L 113.48363406039431 -3.5 L 113.48363406039431 -0.5 L 92.02306703019715 -0.5 Z"/><text text-anchor="middle" pointer-events="none" font-size="8px" fill="#000000" x="69.24181703019715" y="3" transform="rotate(180 69.24181703019715 0)" font-family="sans-serif">ACTED_IN</text></g><g class="relationship" transform="translate(-15.68377980865341 87.91543588035411) rotate(524.81741824387)"><path class="outline" fill="#A5ABB6" stroke="none" d="M 25 0.5 L 45.40083140164212 0.5 L 45.40083140164212 -0.5 L 25 -0.5 Z M 90.96333140164212 0.5 L 111.36416280328424 0.5 L 111.36416280328424 3.5 L 118.36416280328424 0 L 111.36416280328424 -3.5 L 111.36416280328424 -0.5 L 90.96333140164212 -0.5 Z"/><text text-anchor="middle" pointer-events="none" font-size="8px" fill="#000000" x="68.18208140164212" y="3" transform="rotate(180 68.18208140164212 0)" font-family="sans-serif">ACTED_IN</text></g></g><g class="layer nodes"><g class="node" aria-label="graph-node4" transform="translate(-15.68377980865341,87.91543588035411)"><circle class="outline" cx="0" cy="0" r="25" fill="#C990C0" stroke="#b261a5" stroke-width="2px"/><text class="caption" text-anchor="middle" pointer-events="none" x="0" y="0" font-size="10px" fill="#FFFFFF" font-family="sans-serif"> Hugo</text><text class="caption" text-anchor="middle" pointer-events="none" x="0" y="10" font-size="10px" fill="#FFFFFF" font-family="sans-serif"> Weavi…</text></g><g class="node" aria-label="graph-node105" transform="translate(100.60648271050353,172.30073799522552)"><circle class="outline" cx="0" cy="0" r="25" fill="#F79767" stroke="#f36924" stroke-width="2px"/><text class="caption" text-anchor="middle" pointer-events="none" x="0" y="0" font-size="10px" fill="#FFFFFF" font-family="sans-serif"> Cloud</text><text class="caption" text-anchor="middle" pointer-events="none" x="0" y="10" font-size="10px" fill="#FFFFFF" font-family="sans-serif"> Atlas</text></g><g class="node" aria-label="graph-node116" transform="translate(114.07871331761216,21.568749395959507)"><circle class="outline" cx="0" cy="0" r="25" fill="#F79767" stroke="#f36924" stroke-width="2px"/><text class="caption" text-anchor="middle" pointer-events="none" x="0" y="0" font-size="10px" fill="#FFFFFF" font-family="sans-serif"> V for</text><text class="caption" text-anchor="middle" pointer-events="none" x="0" y="10" font-size="10px" fill="#FFFFFF" font-family="sans-serif"> Vende…</text></g><g class="node" aria-label="graph-node10" transform="translate(14.311919653621008,-55.41783195374074)"><circle class="outline" cx="0" cy="0" r="25" fill="#F79767" stroke="#f36924" stroke-width="2px"/><text class="caption" text-anchor="middle" pointer-events="none" x="0" y="-5" font-size="10px" fill="#FFFFFF" font-family="sans-serif"> The</text><text class="caption" text-anchor="middle" pointer-events="none" x="0" y="5" font-size="10px" fill="#FFFFFF" font-family="sans-serif"> Matrix</text><text class="caption" text-anchor="middle" pointer-events="none" x="0" y="15" font-size="10px" fill="#FFFFFF" font-family="sans-serif"> Rev…</text></g><g class="node" aria-label="graph-node9" transform="translate(-108.98532960622433,-23.71031645659596)"><circle class="outline" cx="0" cy="0" r="25" fill="#F79767" stroke="#f36924" stroke-width="2px"/><text class="caption" text-anchor="middle" pointer-events="none" x="0" y="-5" font-size="10px" fill="#FFFFFF" font-family="sans-serif"> The</text><text class="caption" text-anchor="middle" pointer-events="none" x="0" y="5" font-size="10px" fill="#FFFFFF" font-family="sans-serif"> Matrix</text><text class="caption" text-anchor="middle" pointer-events="none" x="0" y="15" font-size="10px" fill="#FFFFFF" font-family="sans-serif"> Rel…</text></g><g class="node" aria-label="graph-node0" transform="translate(-154.04398236501535,125.4619074169591)"><circle class="outline" cx="0" cy="0" r="25" fill="#F79767" stroke="#f36924" stroke-width="2px"/><text class="caption" text-anchor="middle" pointer-events="none" x="0" y="0" font-size="10px" fill="#FFFFFF" font-family="sans-serif"> The</text><text class="caption" text-anchor="middle" pointer-events="none" x="0" y="10" font-size="10px" fill="#FFFFFF" font-family="sans-serif"> Matrix</text></g></g></svg>