<svg xmlns="http://www.w3.org/2000/svg" width="379.09124755859375" height="291.1835632324219" viewBox="-208.03955078125 -151.00326538085938 379.09124755859375 291.1835632324219"><title>Neo4j Graph Visualization</title><desc>Created using Neo4j (http://www.neo4j.com/)</desc><g class="layer relationships"><g class="relationship" transform="translate(142.05169208996082 111.18028960044411) rotate(241.01728237112917)"><path class="outline" fill="#A5ABB6" stroke="none" d="M 21.40063509461097,12.933012701892217 L 21.90063509461097,12.06698729810778 A 97.39688752390718 97.39688752390718 0 0 0 58.73830036307279,24.390808705645668 L 58.61652256508535,25.383366093365566 A 98.39688752390718 98.39688752390718 0 0 1 21.40063509461097,12.933012701892217 Z M 78.01436385292,25.83588659329861 L 77.93900288182675,24.838730274542172 A 97.39688752390718 97.39688752390718 0 0 0 115.31127200735114,14.246107515022112 L 113.93405572393104,11.580910466268952 L 121.75960116834518,11.4768023618341 L 117.14756038524459,17.799703580026325 L 115.77034410182449,15.134506531273166 A 98.39688752390718 98.39688752390718 0 0 1 78.01436385292,25.83588659329861"/><text text-anchor="middle" pointer-events="none" font-size="8px" fill="#000000" x="68.31592279244732" y="28.58906841602287" transform="rotate(180 68.31592279244732 25.58906841602287)" font-family="sans-serif">trek</text></g><g class="relationship" transform="translate(72.29184089324355 -14.759386991516754) rotate(183.1035205254334)"><path class="outline" fill="#A5ABB6" stroke="none" d="M 25 0.5 L 59.12632045311193 0.5 L 59.12632045311193 -0.5 L 25 -0.5 Z M 78.46225795311193 0.5 L 112.58857840622386 0.5 L 112.58857840622386 3.5 L 119.58857840622386 0 L 112.58857840622386 -3.5 L 112.58857840622386 -0.5 L 78.46225795311193 -0.5 Z"/><text text-anchor="middle" pointer-events="none" font-size="8px" fill="#000000" x="68.79428920311193" y="3" transform="rotate(180 68.79428920311193 0)" font-family="sans-serif">trek</text></g><g class="relationship" transform="translate(-72.08467603560348 -22.587436878116222) rotate(222.90782519656193)"><path class="outline" fill="#A5ABB6" stroke="none" d="M 25 0.5 L 59.84376731554315 0.5 L 59.84376731554315 -0.5 L 25 -0.5 Z M 79.17970481554315 0.5 L 114.0234721310863 0.5 L 114.0234721310863 3.5 L 121.0234721310863 0 L 114.0234721310863 -3.5 L 114.0234721310863 -0.5 L 79.17970481554315 -0.5 Z"/><text text-anchor="middle" pointer-events="none" font-size="8px" fill="#000000" x="69.51173606554315" y="3" transform="rotate(180 69.51173606554315 0)" font-family="sans-serif">trek</text></g><g class="relationship" transform="translate(142.05169208996082 111.18028960044411) rotate(241.01728237112917)"><path class="outline" fill="#A5ABB6" stroke="none" d="M 25 0.5 L 57.47892891231079 0.5 L 57.47892891231079 -0.5 L 25 -0.5 Z M 79.49064766231079 0.5 L 111.96957657462158 0.5 L 111.96957657462158 3.5 L 118.96957657462158 0 L 111.96957657462158 -3.5 L 111.96957657462158 -0.5 L 79.49064766231079 -0.5 Z"/><text text-anchor="middle" pointer-events="none" font-size="8px" fill="#000000" x="68.48478828731079" y="3" transform="rotate(180 68.48478828731079 0)" font-family="sans-serif">road</text></g><g class="relationship" transform="translate(142.05169208996082 111.18028960044411) rotate(241.01728237112917)"><path class="outline" fill="#A5ABB6" stroke="none" d="M 21.40063509461097,-12.933012701892217 L 21.90063509461097,-12.06698729810778 A 97.39688752390718 97.39688752390718 0 0 1 38.24638822835284,-19.585326338656728 L 37.91421446540513,-20.52854454840947 A 98.39688752390718 98.39688752390718 0 0 0 21.40063509461097,-12.933012701892217 Z M 98.92053842105918,-21.951724159266632 L 98.6327096057665,-20.994042284588417 A 97.39688752390718 97.39688752390718 0 0 1 115.31127200735114,-14.246107515022112 L 113.93405572393104,-11.580910466268952 L 121.75960116834518,-11.4768023618341 L 117.14756038524459,-17.799703580026325 L 115.77034410182449,-15.134506531273166 A 98.39688752390718 98.39688752390718 0 0 0 98.92053842105918,-21.951724159266632"/><text text-anchor="middle" pointer-events="none" font-size="8px" fill="#000000" x="68.31592279244731" y="-22.58906841602287" transform="rotate(180 68.31592279244731 -25.58906841602287)" font-family="sans-serif">PublicTransport</text></g></g><g class="layer nodes"><g class="node" aria-label="graph-node521" transform="translate(142.05169208996082,111.18028960044411)"><circle class="outline" cx="0" cy="0" r="25" fill="#57C7E3" stroke="#23b3d7" stroke-width="2px"/><text class="caption" text-anchor="middle" pointer-events="none" x="0" y="5" font-size="10px" fill="#2A2C34" font-family="sans-serif"> Darjeeling</text></g><g class="node" aria-label="graph-node523" transform="translate(-179.0395568374382,-122.00327005313649)"><circle class="outline" cx="0" cy="0" r="25" fill="#F16667" stroke="#eb2728" stroke-width="2px"/><text class="caption" text-anchor="middle" pointer-events="none" x="0" y="5" font-size="10px" fill="#FFFFFF" font-family="sans-serif"> Sandakp…</text></g><g class="node" aria-label="graph-node520" transform="translate(72.29184089324355,-14.759386991516754)"><circle class="outline" cx="0" cy="0" r="25" fill="#57C7E3" stroke="#23b3d7" stroke-width="2px"/><text class="caption" text-anchor="middle" pointer-events="none" x="0" y="5" font-size="10px" fill="#2A2C34" font-family="sans-serif"> Rimbik</text></g><g class="node" aria-label="graph-node522" transform="translate(-72.08467603560348,-22.587436878116222)"><circle class="outline" cx="0" cy="0" r="25" fill="#D9C8AE" stroke="#c0a378" stroke-width="2px"/><text class="caption" text-anchor="middle" pointer-events="none" x="0" y="5" font-size="10px" fill="#2A2C34" font-family="sans-serif"> BhikeBh…</text></g></g></svg>