<svg xmlns="http://www.w3.org/2000/svg" width="464.8346252441406" height="168.5519256591797" viewBox="-349.0693054199219 -90.07586669921875 464.8346252441406 168.5519256591797"><title>Neo4j Graph Visualization</title><desc>Created using Neo4j (http://www.neo4j.com/)</desc><g class="layer relationships"><g class="relationship" transform="translate(86.76532597361816 49.476056642472926) rotate(227.1160646698754)"><path class="outline" fill="#A5ABB6" stroke="none" d="M 21.40063509461097,12.933012701892217 L 21.90063509461097,12.06698729810778 A 96.07351648296408 96.07351648296408 0 0 0 58.089333476866784,24.205030579827536 L 57.966010626897756,25.19739718279014 A 97.07351648296408 97.07351648296408 0 0 1 21.40063509461097,12.933012701892217 Z M 77.36423945936983,25.653876423536985 L 77.2877320205507,24.656807412983895 A 96.07351648296408 96.07351648296408 0 0 0 114.00732206960626,14.234442425128037 L 112.63119063359305,11.568685071050918 L 120.4567778017884,11.467761966776742 L 115.84216398429054,17.788785563897527 L 114.46603254827733,15.123028209820408 A 97.07351648296408 97.07351648296408 0 0 1 77.36423945936983,25.653876423536985"/><text text-anchor="middle" pointer-events="none" font-size="8px" fill="#000000" x="67.66545371175098" y="28.411669926956677" transform="rotate(180 67.66545371175098 25.411669926956677)" font-family="sans-serif">trek</text></g><g class="relationship" transform="translate(-10.324781372167934 -55.06410707785212) rotate(534.9299375261743)"><path class="outline" fill="#A5ABB6" stroke="none" d="M 25 0.5 L 62.9370766904087 0.5 L 62.9370766904087 -0.5 L 25 -0.5 Z M 82.2730141904087 0.5 L 120.2100908808174 0.5 L 120.2100908808174 3.5 L 127.2100908808174 0 L 120.2100908808174 -3.5 L 120.2100908808174 -0.5 L 82.2730141904087 -0.5 Z"/><text text-anchor="middle" pointer-events="none" font-size="8px" fill="#000000" x="72.6050454404087" y="3" transform="rotate(180 72.6050454404087 0)" font-family="sans-serif">trek</text></g><g class="relationship" transform="translate(-161.9393316203673 -41.61271610952012) rotate(187.01685718971117)"><path class="outline" fill="#A5ABB6" stroke="none" d="M 25 0.5 L 66.49366079345153 0.5 L 66.49366079345153 -0.5 L 25 -0.5 Z M 85.82959829345153 0.5 L 127.32325908690305 0.5 L 127.32325908690305 3.5 L 134.32325908690305 0 L 127.32325908690305 -3.5 L 127.32325908690305 -0.5 L 85.82959829345153 -0.5 Z"/><text text-anchor="middle" pointer-events="none" font-size="8px" fill="#000000" x="76.16162954345153" y="3" transform="rotate(180 76.16162954345153 0)" font-family="sans-serif">trek</text></g><g class="relationship" transform="translate(86.76532597361816 49.476056642472926) rotate(227.1160646698754)"><path class="outline" fill="#A5ABB6" stroke="none" d="M 25 0.5 L 56.829851834548876 0.5 L 56.829851834548876 -0.5 L 25 -0.5 Z M 78.84157058454888 0.5 L 110.67142241909775 0.5 L 110.67142241909775 3.5 L 117.67142241909775 0 L 110.67142241909775 -3.5 L 110.67142241909775 -0.5 L 78.84157058454888 -0.5 Z"/><text text-anchor="middle" pointer-events="none" font-size="8px" fill="#000000" x="67.83571120954888" y="3" transform="rotate(180 67.83571120954888 0)" font-family="sans-serif">road</text></g><g class="relationship" transform="translate(86.76532597361816 49.476056642472926) rotate(227.1160646698754)"><path class="outline" fill="#A5ABB6" stroke="none" d="M 21.40063509461097,-12.933012701892217 L 21.90063509461097,-12.06698729810778 A 96.07351648296408 96.07351648296408 0 0 1 37.61467146657889,-19.337873055378353 L 37.278234089736905,-20.27957889663861 A 97.07351648296408 97.07351648296408 0 0 0 21.40063509461097,-12.933012701892217 Z M 98.26044090830356,-21.714612564300523 L 97.9686718594592,-20.758123765549342 A 96.07351648296408 96.07351648296408 0 0 1 114.00732206960626,-14.234442425128037 L 112.63119063359305,-11.568685071050918 L 120.4567778017884,-11.467761966776742 L 115.84216398429054,-17.788785563897527 L 114.46603254827733,-15.123028209820408 A 97.07351648296408 97.07351648296408 0 0 0 98.26044090830356,-21.714612564300523"/><text text-anchor="middle" pointer-events="none" font-size="8px" fill="#000000" x="67.66545371175097" y="-22.411669926956677" transform="rotate(180 67.66545371175097 -25.411669926956677)" font-family="sans-serif">PublicTransport</text></g></g><g class="layer nodes"><g class="node" aria-label="graph-node521" transform="translate(86.76532597361816,49.476056642472926)"><circle class="outline" cx="0" cy="0" r="25" fill="#57C7E3" stroke="#23b3d7" stroke-width="2px"/><text class="caption" text-anchor="middle" pointer-events="none" x="0" y="5" font-size="10px" fill="#2A2C34" font-family="sans-serif"> Darjeeling</text></g><g class="node" aria-label="graph-node523" transform="translate(-320.0692998185743,-61.07586189088064)"><circle class="outline" cx="0" cy="0" r="25" fill="#F16667" stroke="#eb2728" stroke-width="2px"/><text class="caption" text-anchor="middle" pointer-events="none" x="0" y="5" font-size="10px" fill="#FFFFFF" font-family="sans-serif"> Sandakp…</text></g><g class="node" aria-label="graph-node520" transform="translate(-10.324781372167934,-55.06410707785212)"><circle class="outline" cx="0" cy="0" r="25" fill="#57C7E3" stroke="#23b3d7" stroke-width="2px"/><text class="caption" text-anchor="middle" pointer-events="none" x="0" y="5" font-size="10px" fill="#2A2C34" font-family="sans-serif"> Rimbik</text></g><g class="node" aria-label="graph-node522" transform="translate(-161.9393316203673,-41.61271610952012)"><circle class="outline" cx="0" cy="0" r="25" fill="#D9C8AE" stroke="#c0a378" stroke-width="2px"/><text class="caption" text-anchor="middle" pointer-events="none" x="0" y="5" font-size="10px" fill="#2A2C34" font-family="sans-serif"> BhikeBh…</text></g></g></svg>